<svg width="540" height="540" viewBox="0 0 540 540" fill="none" xmlns="http://www.w3.org/2000/svg">
<rect width="540" height="540" rx="120" fill="#0F172A"/>
<path d="M82.2 139.6C85.9333 139.6 89.8 140.667 93.8 142.8C98.0667 144.667 101.267 147.2 103.4 150.4L200.6 300L180.6 299.2L280.2 150.4C285.267 143.2 291.8 139.6 299.8 139.6C306.2 139.6 311.933 141.867 317 146.4C322.067 150.933 324.6 156.8 324.6 164V395.6C324.6 402.533 322.333 408.4 317.8 413.2C313.267 417.733 307.267 420 299.8 420C292.333 420 286.2 417.733 281.4 413.2C276.867 408.4 274.6 402.533 274.6 395.6V207.2L290.2 210.8L208.6 335.2C206.2 338.133 203.133 340.667 199.4 342.8C195.933 344.933 192.333 345.867 188.6 345.6C185.133 345.867 181.533 344.933 177.8 342.8C174.333 340.667 171.4 338.133 169 335.2L92.6 214.4L103 193.2V395.6C103 402.533 100.867 408.4 96.6 413.2C92.3333 417.733 86.7333 420 79.8 420C73.1333 420 67.6667 417.733 63.4 413.2C59.1333 408.4 57 402.533 57 395.6V164C57 157.333 59.4 151.6 64.2 146.8C69.2667 142 75.2667 139.6 82.2 139.6Z" fill="#2DD4BF"/>
<path d="M403.588 139.3C429.252 139.3 448.366 145.315 460.931 157.345C473.496 169.375 479.778 187.153 479.778 210.678C479.778 223.243 476.704 234.337 470.555 243.961C464.406 253.318 455.317 260.669 443.287 266.016C431.257 271.095 416.42 273.635 398.776 273.635L400.38 255.59C408.667 255.59 418.158 256.793 428.851 259.199C439.544 261.338 449.837 265.348 459.728 271.229C469.887 276.843 478.174 284.863 484.59 295.289C491.273 305.448 494.615 318.547 494.615 334.587C494.615 352.231 491.674 366.667 485.793 377.895C480.179 389.123 472.694 397.811 463.337 403.96C453.98 410.109 443.955 414.386 433.262 416.792C422.569 418.931 412.276 420 402.385 420H302.536C295.585 420 289.704 417.728 284.892 413.183C280.347 408.371 278.075 402.49 278.075 395.539V163.761C278.075 156.81 280.347 151.063 284.892 146.518C289.704 141.706 295.585 139.3 302.536 139.3H403.588ZM396.37 186.618H324.992L330.205 180.202V252.783L325.393 249.174H397.573C405.326 249.174 412.276 246.634 418.425 241.555C424.574 236.476 427.648 229.124 427.648 219.5C427.648 208.005 424.707 199.717 418.826 194.638C413.212 189.291 405.727 186.618 396.37 186.618ZM399.578 296.492H326.596L330.205 293.284V377.895L326.195 373.885H402.385C414.682 373.885 424.44 370.677 431.658 364.261C438.876 357.578 442.485 347.686 442.485 334.587C442.485 322.557 440.079 313.869 435.267 308.522C430.455 303.175 424.707 299.834 418.024 298.497C411.341 297.16 405.192 296.492 399.578 296.492Z" fill="#2DD4BF"/>
</svg>
